<mxfile host="app.diagrams.net" modified="2023-05-02T07:28:11.953Z" agent="Mozilla/5.0 (Windows NT 10.0; Win64; x64) AppleWebKit/537.36 (KHTML, like Gecko) Chrome/112.0.0.0 Safari/537.36" etag="HBTgPQMFIPxMgdal9Hgz" version="21.2.4" type="device">
  <diagram name="第 1 页" id="FQvg7F29peAB76W_smux">
    <mxGraphModel dx="1434" dy="796" grid="1" gridSize="10" guides="1" tooltips="1" connect="1" arrows="1" fold="1" page="1" pageScale="1" pageWidth="1169" pageHeight="827" math="0" shadow="0">
      <root>
        <mxCell id="0" />
        <mxCell id="1" parent="0" />
        <mxCell id="UxVpJ3fF8vfEaiCqMQMJ-1" value="&lt;font style=&quot;font-size: 24px;&quot;&gt;products&lt;/font&gt;" style="rounded=0;whiteSpace=wrap;html=1;fillColor=#fff2cc;strokeColor=#d6b656;" parent="1" vertex="1">
          <mxGeometry x="150" y="157.5" width="160" height="80" as="geometry" />
        </mxCell>
        <mxCell id="UxVpJ3fF8vfEaiCqMQMJ-2" value="&lt;font style=&quot;font-size: 24px;&quot;&gt;pid&lt;/font&gt;" style="ellipse;whiteSpace=wrap;html=1;" parent="1" vertex="1">
          <mxGeometry x="20" y="140" width="100" height="50" as="geometry" />
        </mxCell>
        <mxCell id="UxVpJ3fF8vfEaiCqMQMJ-3" value="&lt;font style=&quot;font-size: 24px;&quot;&gt;pname&lt;/font&gt;" style="ellipse;whiteSpace=wrap;html=1;" parent="1" vertex="1">
          <mxGeometry x="180" y="30" width="100" height="50" as="geometry" />
        </mxCell>
        <mxCell id="UxVpJ3fF8vfEaiCqMQMJ-4" value="&lt;font style=&quot;font-size: 24px;&quot;&gt;price&lt;/font&gt;" style="ellipse;whiteSpace=wrap;html=1;" parent="1" vertex="1">
          <mxGeometry x="294" y="40" width="100" height="50" as="geometry" />
        </mxCell>
        <mxCell id="UxVpJ3fF8vfEaiCqMQMJ-5" value="&lt;font style=&quot;font-size: 24px;&quot;&gt;series&lt;/font&gt;" style="ellipse;whiteSpace=wrap;html=1;" parent="1" vertex="1">
          <mxGeometry x="60" y="50" width="100" height="50" as="geometry" />
        </mxCell>
        <mxCell id="UxVpJ3fF8vfEaiCqMQMJ-6" value="" style="endArrow=none;html=1;rounded=0;entryX=0;entryY=0.5;entryDx=0;entryDy=0;exitX=1;exitY=0.5;exitDx=0;exitDy=0;" parent="1" source="UxVpJ3fF8vfEaiCqMQMJ-2" target="UxVpJ3fF8vfEaiCqMQMJ-1" edge="1">
          <mxGeometry width="50" height="50" relative="1" as="geometry">
            <mxPoint x="100" y="210" as="sourcePoint" />
            <mxPoint x="120" y="170" as="targetPoint" />
          </mxGeometry>
        </mxCell>
        <mxCell id="UxVpJ3fF8vfEaiCqMQMJ-7" value="" style="endArrow=none;html=1;rounded=0;exitX=0.25;exitY=0;exitDx=0;exitDy=0;entryX=0.5;entryY=1;entryDx=0;entryDy=0;" parent="1" source="UxVpJ3fF8vfEaiCqMQMJ-1" target="UxVpJ3fF8vfEaiCqMQMJ-5" edge="1">
          <mxGeometry width="50" height="50" relative="1" as="geometry">
            <mxPoint x="190" y="80" as="sourcePoint" />
            <mxPoint x="240" y="30" as="targetPoint" />
          </mxGeometry>
        </mxCell>
        <mxCell id="UxVpJ3fF8vfEaiCqMQMJ-8" value="" style="endArrow=none;html=1;rounded=0;exitX=0.5;exitY=0;exitDx=0;exitDy=0;entryX=0.5;entryY=1;entryDx=0;entryDy=0;" parent="1" source="UxVpJ3fF8vfEaiCqMQMJ-1" target="UxVpJ3fF8vfEaiCqMQMJ-3" edge="1">
          <mxGeometry width="50" height="50" relative="1" as="geometry">
            <mxPoint x="210" y="100" as="sourcePoint" />
            <mxPoint x="260" y="50" as="targetPoint" />
          </mxGeometry>
        </mxCell>
        <mxCell id="UxVpJ3fF8vfEaiCqMQMJ-9" value="" style="endArrow=none;html=1;rounded=0;exitX=0.75;exitY=0;exitDx=0;exitDy=0;entryX=0;entryY=1;entryDx=0;entryDy=0;" parent="1" source="UxVpJ3fF8vfEaiCqMQMJ-1" target="UxVpJ3fF8vfEaiCqMQMJ-4" edge="1">
          <mxGeometry width="50" height="50" relative="1" as="geometry">
            <mxPoint x="280" y="110" as="sourcePoint" />
            <mxPoint x="290" y="80" as="targetPoint" />
          </mxGeometry>
        </mxCell>
        <mxCell id="XsXpNfyCw_j6Ch00CxnX-1" value="&lt;font style=&quot;font-size: 24px;&quot;&gt;ptxt&lt;/font&gt;" style="ellipse;whiteSpace=wrap;html=1;" parent="1" vertex="1">
          <mxGeometry x="350" y="100" width="100" height="50" as="geometry" />
        </mxCell>
        <mxCell id="XsXpNfyCw_j6Ch00CxnX-2" value="" style="endArrow=none;html=1;rounded=0;exitX=1;exitY=0.5;exitDx=0;exitDy=0;entryX=0;entryY=0.5;entryDx=0;entryDy=0;" parent="1" source="UxVpJ3fF8vfEaiCqMQMJ-1" target="XsXpNfyCw_j6Ch00CxnX-1" edge="1">
          <mxGeometry width="50" height="50" relative="1" as="geometry">
            <mxPoint x="350" y="230" as="sourcePoint" />
            <mxPoint x="400" y="180" as="targetPoint" />
          </mxGeometry>
        </mxCell>
        <mxCell id="XsXpNfyCw_j6Ch00CxnX-3" value="&lt;font style=&quot;font-size: 24px;&quot;&gt;imgpath&lt;/font&gt;" style="ellipse;whiteSpace=wrap;html=1;" parent="1" vertex="1">
          <mxGeometry x="350" y="187.5" width="120" height="60" as="geometry" />
        </mxCell>
        <mxCell id="XsXpNfyCw_j6Ch00CxnX-4" value="" style="endArrow=none;html=1;rounded=0;exitX=1;exitY=0.75;exitDx=0;exitDy=0;entryX=0;entryY=0.5;entryDx=0;entryDy=0;" parent="1" source="UxVpJ3fF8vfEaiCqMQMJ-1" target="XsXpNfyCw_j6Ch00CxnX-3" edge="1">
          <mxGeometry width="50" height="50" relative="1" as="geometry">
            <mxPoint x="350" y="240" as="sourcePoint" />
            <mxPoint x="400" y="190" as="targetPoint" />
          </mxGeometry>
        </mxCell>
        <mxCell id="XsXpNfyCw_j6Ch00CxnX-5" value="&lt;font style=&quot;font-size: 24px;&quot;&gt;shops&lt;/font&gt;" style="rounded=0;whiteSpace=wrap;html=1;fillColor=#fff2cc;strokeColor=#d6b656;" parent="1" vertex="1">
          <mxGeometry x="800" y="142.5" width="170" height="80" as="geometry" />
        </mxCell>
        <mxCell id="XsXpNfyCw_j6Ch00CxnX-6" value="&lt;font style=&quot;font-size: 24px;&quot;&gt;sid&lt;/font&gt;" style="ellipse;whiteSpace=wrap;html=1;" parent="1" vertex="1">
          <mxGeometry x="610" y="100" width="100" height="50" as="geometry" />
        </mxCell>
        <mxCell id="XsXpNfyCw_j6Ch00CxnX-7" value="&lt;font style=&quot;font-size: 24px;&quot;&gt;&lt;u&gt;sname&lt;/u&gt;&lt;/font&gt;" style="ellipse;whiteSpace=wrap;html=1;" parent="1" vertex="1">
          <mxGeometry x="710" y="67.5" width="100" height="50" as="geometry" />
        </mxCell>
        <mxCell id="XsXpNfyCw_j6Ch00CxnX-8" value="&lt;font style=&quot;font-size: 24px;&quot;&gt;address&lt;/font&gt;" style="ellipse;whiteSpace=wrap;html=1;" parent="1" vertex="1">
          <mxGeometry x="825" y="32.5" width="120" height="60" as="geometry" />
        </mxCell>
        <mxCell id="XsXpNfyCw_j6Ch00CxnX-9" value="&lt;span style=&quot;font-size: 24px;&quot;&gt;shoptel&lt;/span&gt;" style="ellipse;whiteSpace=wrap;html=1;" parent="1" vertex="1">
          <mxGeometry x="990" y="47.5" width="120" height="60" as="geometry" />
        </mxCell>
        <mxCell id="XsXpNfyCw_j6Ch00CxnX-10" value="&lt;font style=&quot;font-size: 24px;&quot;&gt;shophr&lt;/font&gt;" style="ellipse;whiteSpace=wrap;html=1;" parent="1" vertex="1">
          <mxGeometry x="1010" y="187.5" width="120" height="60" as="geometry" />
        </mxCell>
        <mxCell id="XsXpNfyCw_j6Ch00CxnX-11" value="&lt;font style=&quot;font-size: 24px;&quot;&gt;mapurl&lt;/font&gt;" style="ellipse;whiteSpace=wrap;html=1;" parent="1" vertex="1">
          <mxGeometry x="630" y="177.5" width="120" height="60" as="geometry" />
        </mxCell>
        <mxCell id="XsXpNfyCw_j6Ch00CxnX-12" value="&lt;font style=&quot;font-size: 24px;&quot;&gt;lat&lt;/font&gt;" style="ellipse;whiteSpace=wrap;html=1;" parent="1" vertex="1">
          <mxGeometry x="960" y="270" width="100" height="50" as="geometry" />
        </mxCell>
        <mxCell id="XsXpNfyCw_j6Ch00CxnX-13" value="&lt;font style=&quot;font-size: 24px;&quot;&gt;lng&lt;/font&gt;" style="ellipse;whiteSpace=wrap;html=1;" parent="1" vertex="1">
          <mxGeometry x="835" y="270" width="100" height="50" as="geometry" />
        </mxCell>
        <mxCell id="XsXpNfyCw_j6Ch00CxnX-15" value="" style="endArrow=none;html=1;rounded=0;entryX=0.459;entryY=0.994;entryDx=0;entryDy=0;exitX=0.5;exitY=0;exitDx=0;exitDy=0;entryPerimeter=0;" parent="1" source="XsXpNfyCw_j6Ch00CxnX-13" target="XsXpNfyCw_j6Ch00CxnX-5" edge="1">
          <mxGeometry width="50" height="50" relative="1" as="geometry">
            <mxPoint x="860" y="337.5" as="sourcePoint" />
            <mxPoint x="910" y="287.5" as="targetPoint" />
          </mxGeometry>
        </mxCell>
        <mxCell id="XsXpNfyCw_j6Ch00CxnX-16" value="" style="endArrow=none;html=1;rounded=0;entryX=0.75;entryY=1;entryDx=0;entryDy=0;exitX=0;exitY=0;exitDx=0;exitDy=0;" parent="1" source="XsXpNfyCw_j6Ch00CxnX-12" target="XsXpNfyCw_j6Ch00CxnX-5" edge="1">
          <mxGeometry width="50" height="50" relative="1" as="geometry">
            <mxPoint x="840" y="267.5" as="sourcePoint" />
            <mxPoint x="940" y="237.5" as="targetPoint" />
          </mxGeometry>
        </mxCell>
        <mxCell id="XsXpNfyCw_j6Ch00CxnX-17" value="" style="endArrow=none;html=1;rounded=0;exitX=0.5;exitY=0;exitDx=0;exitDy=0;entryX=0.5;entryY=1;entryDx=0;entryDy=0;" parent="1" source="XsXpNfyCw_j6Ch00CxnX-5" target="XsXpNfyCw_j6Ch00CxnX-8" edge="1">
          <mxGeometry width="50" height="50" relative="1" as="geometry">
            <mxPoint x="820" y="132.5" as="sourcePoint" />
            <mxPoint x="870" y="82.5" as="targetPoint" />
          </mxGeometry>
        </mxCell>
        <mxCell id="XsXpNfyCw_j6Ch00CxnX-18" value="" style="endArrow=none;html=1;rounded=0;entryX=0;entryY=0.25;entryDx=0;entryDy=0;exitX=0.5;exitY=1;exitDx=0;exitDy=0;" parent="1" source="XsXpNfyCw_j6Ch00CxnX-7" target="XsXpNfyCw_j6Ch00CxnX-5" edge="1">
          <mxGeometry width="50" height="50" relative="1" as="geometry">
            <mxPoint x="740" y="217.5" as="sourcePoint" />
            <mxPoint x="790" y="167.5" as="targetPoint" />
          </mxGeometry>
        </mxCell>
        <mxCell id="XsXpNfyCw_j6Ch00CxnX-19" value="" style="endArrow=none;html=1;rounded=0;entryX=0;entryY=0.5;entryDx=0;entryDy=0;" parent="1" source="XsXpNfyCw_j6Ch00CxnX-6" target="XsXpNfyCw_j6Ch00CxnX-5" edge="1">
          <mxGeometry width="50" height="50" relative="1" as="geometry">
            <mxPoint x="730" y="227.5" as="sourcePoint" />
            <mxPoint x="780" y="177.5" as="targetPoint" />
          </mxGeometry>
        </mxCell>
        <mxCell id="XsXpNfyCw_j6Ch00CxnX-20" value="" style="endArrow=none;html=1;rounded=0;entryX=0;entryY=0.75;entryDx=0;entryDy=0;exitX=1;exitY=0.5;exitDx=0;exitDy=0;" parent="1" source="XsXpNfyCw_j6Ch00CxnX-11" target="XsXpNfyCw_j6Ch00CxnX-5" edge="1">
          <mxGeometry width="50" height="50" relative="1" as="geometry">
            <mxPoint x="720" y="267.5" as="sourcePoint" />
            <mxPoint x="770" y="217.5" as="targetPoint" />
          </mxGeometry>
        </mxCell>
        <mxCell id="XsXpNfyCw_j6Ch00CxnX-21" value="" style="endArrow=none;html=1;rounded=0;entryX=0;entryY=1;entryDx=0;entryDy=0;" parent="1" source="XsXpNfyCw_j6Ch00CxnX-5" target="XsXpNfyCw_j6Ch00CxnX-9" edge="1">
          <mxGeometry width="50" height="50" relative="1" as="geometry">
            <mxPoint x="1020" y="147.5" as="sourcePoint" />
            <mxPoint x="990" y="142.5" as="targetPoint" />
          </mxGeometry>
        </mxCell>
        <mxCell id="XsXpNfyCw_j6Ch00CxnX-22" value="" style="endArrow=none;html=1;rounded=0;entryX=0;entryY=0.5;entryDx=0;entryDy=0;exitX=1;exitY=0.75;exitDx=0;exitDy=0;" parent="1" source="XsXpNfyCw_j6Ch00CxnX-5" target="XsXpNfyCw_j6Ch00CxnX-10" edge="1">
          <mxGeometry width="50" height="50" relative="1" as="geometry">
            <mxPoint x="930" y="317.5" as="sourcePoint" />
            <mxPoint x="980" y="267.5" as="targetPoint" />
          </mxGeometry>
        </mxCell>
        <mxCell id="mk4pWUUraiVxnKkYwdRe-1" value="&lt;font style=&quot;font-size: 24px;&quot;&gt;wilurl&lt;/font&gt;" style="ellipse;whiteSpace=wrap;html=1;" parent="1" vertex="1">
          <mxGeometry x="1030" y="117.5" width="100" height="60" as="geometry" />
        </mxCell>
        <mxCell id="mk4pWUUraiVxnKkYwdRe-2" value="" style="endArrow=none;html=1;rounded=0;entryX=0;entryY=0.5;entryDx=0;entryDy=0;exitX=1;exitY=0.25;exitDx=0;exitDy=0;" parent="1" source="XsXpNfyCw_j6Ch00CxnX-5" target="mk4pWUUraiVxnKkYwdRe-1" edge="1">
          <mxGeometry width="50" height="50" relative="1" as="geometry">
            <mxPoint x="990" y="187.5" as="sourcePoint" />
            <mxPoint x="1040" y="137.5" as="targetPoint" />
          </mxGeometry>
        </mxCell>
        <mxCell id="fXhm6jQ6wO7khlv-7q1j-1" value="&lt;font style=&quot;font-size: 24px;&quot;&gt;users&lt;/font&gt;" style="rounded=0;whiteSpace=wrap;html=1;fillColor=#fff2cc;strokeColor=#d6b656;" parent="1" vertex="1">
          <mxGeometry x="810" y="540" width="170" height="85" as="geometry" />
        </mxCell>
        <mxCell id="fXhm6jQ6wO7khlv-7q1j-2" value="&lt;font style=&quot;font-size: 24px;&quot;&gt;id&lt;/font&gt;" style="ellipse;whiteSpace=wrap;html=1;" parent="1" vertex="1">
          <mxGeometry x="1000" y="640" width="100" height="50" as="geometry" />
        </mxCell>
        <mxCell id="fXhm6jQ6wO7khlv-7q1j-3" value="&lt;font style=&quot;font-size: 24px;&quot;&gt;&lt;u&gt;name&lt;/u&gt;&lt;/font&gt;" style="ellipse;whiteSpace=wrap;html=1;" parent="1" vertex="1">
          <mxGeometry x="950" y="445" width="100" height="50" as="geometry" />
        </mxCell>
        <mxCell id="fXhm6jQ6wO7khlv-7q1j-4" value="&lt;font style=&quot;font-size: 24px;&quot;&gt;email&lt;/font&gt;" style="ellipse;whiteSpace=wrap;html=1;" parent="1" vertex="1">
          <mxGeometry x="1010" y="540" width="100" height="50" as="geometry" />
        </mxCell>
        <mxCell id="fXhm6jQ6wO7khlv-7q1j-5" value="&lt;font style=&quot;font-size: 24px;&quot;&gt;password&lt;/font&gt;" style="ellipse;whiteSpace=wrap;html=1;" parent="1" vertex="1">
          <mxGeometry x="710" y="665" width="140" height="60" as="geometry" />
        </mxCell>
        <mxCell id="fXhm6jQ6wO7khlv-7q1j-6" value="&lt;font style=&quot;font-size: 24px;&quot;&gt;&lt;u&gt;phone&lt;/u&gt;&lt;/font&gt;" style="ellipse;whiteSpace=wrap;html=1;" parent="1" vertex="1">
          <mxGeometry x="780" y="439" width="110" height="55" as="geometry" />
        </mxCell>
        <mxCell id="fXhm6jQ6wO7khlv-7q1j-7" value="&lt;font style=&quot;font-size: 24px;&quot;&gt;birthday&lt;/font&gt;" style="ellipse;whiteSpace=wrap;html=1;" parent="1" vertex="1">
          <mxGeometry x="860" y="670" width="120" height="60" as="geometry" />
        </mxCell>
        <mxCell id="fXhm6jQ6wO7khlv-7q1j-9" value="" style="endArrow=none;html=1;rounded=0;entryX=0.25;entryY=0;entryDx=0;entryDy=0;exitX=0.5;exitY=1;exitDx=0;exitDy=0;" parent="1" source="fXhm6jQ6wO7khlv-7q1j-6" target="fXhm6jQ6wO7khlv-7q1j-1" edge="1">
          <mxGeometry width="50" height="50" relative="1" as="geometry">
            <mxPoint x="780" y="512.5" as="sourcePoint" />
            <mxPoint x="830" y="462.5" as="targetPoint" />
          </mxGeometry>
        </mxCell>
        <mxCell id="fXhm6jQ6wO7khlv-7q1j-10" value="" style="endArrow=none;html=1;rounded=0;entryX=0;entryY=1;entryDx=0;entryDy=0;exitX=0.75;exitY=0;exitDx=0;exitDy=0;" parent="1" source="fXhm6jQ6wO7khlv-7q1j-1" target="fXhm6jQ6wO7khlv-7q1j-3" edge="1">
          <mxGeometry width="50" height="50" relative="1" as="geometry">
            <mxPoint x="945" y="505" as="sourcePoint" />
            <mxPoint x="995" y="455" as="targetPoint" />
          </mxGeometry>
        </mxCell>
        <mxCell id="fXhm6jQ6wO7khlv-7q1j-11" value="" style="endArrow=none;html=1;rounded=0;exitX=1;exitY=0;exitDx=0;exitDy=0;entryX=0.25;entryY=1;entryDx=0;entryDy=0;" parent="1" source="fXhm6jQ6wO7khlv-7q1j-5" target="fXhm6jQ6wO7khlv-7q1j-1" edge="1">
          <mxGeometry width="50" height="50" relative="1" as="geometry">
            <mxPoint x="735" y="580" as="sourcePoint" />
            <mxPoint x="780" y="610" as="targetPoint" />
          </mxGeometry>
        </mxCell>
        <mxCell id="fXhm6jQ6wO7khlv-7q1j-12" value="" style="endArrow=none;html=1;rounded=0;exitX=1;exitY=0.5;exitDx=0;exitDy=0;entryX=0;entryY=0.5;entryDx=0;entryDy=0;" parent="1" source="fXhm6jQ6wO7khlv-7q1j-1" target="fXhm6jQ6wO7khlv-7q1j-4" edge="1">
          <mxGeometry width="50" height="50" relative="1" as="geometry">
            <mxPoint x="1000" y="565" as="sourcePoint" />
            <mxPoint x="1060" y="565" as="targetPoint" />
          </mxGeometry>
        </mxCell>
        <mxCell id="fXhm6jQ6wO7khlv-7q1j-13" value="" style="endArrow=none;html=1;rounded=0;entryX=0.5;entryY=1;entryDx=0;entryDy=0;exitX=0.5;exitY=0;exitDx=0;exitDy=0;" parent="1" source="fXhm6jQ6wO7khlv-7q1j-7" target="fXhm6jQ6wO7khlv-7q1j-1" edge="1">
          <mxGeometry width="50" height="50" relative="1" as="geometry">
            <mxPoint x="750" y="630" as="sourcePoint" />
            <mxPoint x="800" y="580" as="targetPoint" />
          </mxGeometry>
        </mxCell>
        <mxCell id="jXHp5anV71AdlyanNkg9-2" value="&lt;font style=&quot;font-size: 24px;&quot;&gt;oid&lt;/font&gt;" style="ellipse;whiteSpace=wrap;html=1;" parent="1" vertex="1">
          <mxGeometry x="470" y="237.5" width="100" height="50" as="geometry" />
        </mxCell>
        <mxCell id="jXHp5anV71AdlyanNkg9-3" value="&lt;font style=&quot;font-size: 24px;&quot;&gt;&lt;u&gt;phone&lt;/u&gt;&lt;/font&gt;" style="ellipse;whiteSpace=wrap;html=1;" parent="1" vertex="1">
          <mxGeometry x="280" y="434" width="100" height="60" as="geometry" />
        </mxCell>
        <mxCell id="jXHp5anV71AdlyanNkg9-4" value="&lt;font style=&quot;font-size: 24px;&quot;&gt;&lt;u&gt;name&lt;/u&gt;&lt;/font&gt;" style="ellipse;whiteSpace=wrap;html=1;" parent="1" vertex="1">
          <mxGeometry x="575" y="247.5" width="90" height="60" as="geometry" />
        </mxCell>
        <mxCell id="jXHp5anV71AdlyanNkg9-5" value="&lt;font style=&quot;font-size: 24px;&quot;&gt;&lt;u&gt;sname&lt;/u&gt;&lt;/font&gt;" style="ellipse;whiteSpace=wrap;html=1;" parent="1" vertex="1">
          <mxGeometry x="670" y="384" width="100" height="60" as="geometry" />
        </mxCell>
        <mxCell id="jXHp5anV71AdlyanNkg9-6" value="&lt;font style=&quot;font-size: 24px;&quot;&gt;amount&lt;/font&gt;" style="ellipse;whiteSpace=wrap;html=1;" parent="1" vertex="1">
          <mxGeometry x="310" y="510" width="110" height="60" as="geometry" />
        </mxCell>
        <mxCell id="jXHp5anV71AdlyanNkg9-8" value="&lt;font style=&quot;font-size: 24px;&quot;&gt;pdinfo&lt;/font&gt;" style="ellipse;whiteSpace=wrap;html=1;" parent="1" vertex="1">
          <mxGeometry x="420" y="580" width="100" height="60" as="geometry" />
        </mxCell>
        <mxCell id="jXHp5anV71AdlyanNkg9-9" value="&lt;font style=&quot;font-size: 24px;&quot;&gt;createdate&lt;/font&gt;" style="ellipse;whiteSpace=wrap;html=1;" parent="1" vertex="1">
          <mxGeometry x="550" y="570" width="140" height="60" as="geometry" />
        </mxCell>
        <mxCell id="maN46sJLZ4QJRH9Op_n9-1" value="&lt;font style=&quot;font-size: 24px;&quot;&gt;orders&lt;/font&gt;" style="rhombus;whiteSpace=wrap;html=1;" parent="1" vertex="1">
          <mxGeometry x="490" y="360" width="150" height="126" as="geometry" />
        </mxCell>
        <mxCell id="s2veUAVOYKB9DMk2hkYw-1" value="" style="endArrow=none;html=1;rounded=0;entryX=0;entryY=0.5;entryDx=0;entryDy=0;exitX=0.794;exitY=1.012;exitDx=0;exitDy=0;exitPerimeter=0;" parent="1" source="fXhm6jQ6wO7khlv-7q1j-1" target="fXhm6jQ6wO7khlv-7q1j-2" edge="1">
          <mxGeometry width="50" height="50" relative="1" as="geometry">
            <mxPoint x="970" y="665" as="sourcePoint" />
            <mxPoint x="1020" y="615" as="targetPoint" />
          </mxGeometry>
        </mxCell>
        <mxCell id="s2veUAVOYKB9DMk2hkYw-2" value="" style="endArrow=none;html=1;rounded=0;strokeWidth=4;entryX=0;entryY=0;entryDx=0;entryDy=0;exitX=0.5;exitY=1;exitDx=0;exitDy=0;" parent="1" source="UxVpJ3fF8vfEaiCqMQMJ-1" target="maN46sJLZ4QJRH9Op_n9-1" edge="1">
          <mxGeometry width="50" height="50" relative="1" as="geometry">
            <mxPoint x="300" y="330" as="sourcePoint" />
            <mxPoint x="350" y="280" as="targetPoint" />
          </mxGeometry>
        </mxCell>
        <mxCell id="s2veUAVOYKB9DMk2hkYw-3" value="" style="endArrow=none;html=1;rounded=0;entryX=0.25;entryY=1;entryDx=0;entryDy=0;exitX=1;exitY=0;exitDx=0;exitDy=0;strokeWidth=4;" parent="1" source="maN46sJLZ4QJRH9Op_n9-1" target="XsXpNfyCw_j6Ch00CxnX-5" edge="1">
          <mxGeometry width="50" height="50" relative="1" as="geometry">
            <mxPoint x="560" y="430" as="sourcePoint" />
            <mxPoint x="610" y="380" as="targetPoint" />
          </mxGeometry>
        </mxCell>
        <mxCell id="s2veUAVOYKB9DMk2hkYw-4" value="" style="endArrow=none;html=1;rounded=0;entryX=0;entryY=0.5;entryDx=0;entryDy=0;exitX=1;exitY=1;exitDx=0;exitDy=0;strokeWidth=4;" parent="1" source="maN46sJLZ4QJRH9Op_n9-1" target="fXhm6jQ6wO7khlv-7q1j-1" edge="1">
          <mxGeometry width="50" height="50" relative="1" as="geometry">
            <mxPoint x="560" y="430" as="sourcePoint" />
            <mxPoint x="610" y="380" as="targetPoint" />
          </mxGeometry>
        </mxCell>
        <mxCell id="s2veUAVOYKB9DMk2hkYw-5" value="" style="endArrow=none;html=1;rounded=0;entryX=0.5;entryY=1;entryDx=0;entryDy=0;exitX=0.5;exitY=0;exitDx=0;exitDy=0;" parent="1" source="maN46sJLZ4QJRH9Op_n9-1" target="jXHp5anV71AdlyanNkg9-2" edge="1">
          <mxGeometry width="50" height="50" relative="1" as="geometry">
            <mxPoint x="560" y="430" as="sourcePoint" />
            <mxPoint x="610" y="380" as="targetPoint" />
          </mxGeometry>
        </mxCell>
        <mxCell id="s2veUAVOYKB9DMk2hkYw-6" value="" style="endArrow=none;html=1;rounded=0;entryX=0;entryY=1;entryDx=0;entryDy=0;exitX=1;exitY=0;exitDx=0;exitDy=0;" parent="1" source="jXHp5anV71AdlyanNkg9-6" target="maN46sJLZ4QJRH9Op_n9-1" edge="1">
          <mxGeometry width="50" height="50" relative="1" as="geometry">
            <mxPoint x="440" y="500" as="sourcePoint" />
            <mxPoint x="490" y="450" as="targetPoint" />
          </mxGeometry>
        </mxCell>
        <mxCell id="s2veUAVOYKB9DMk2hkYw-7" value="" style="endArrow=none;html=1;rounded=0;exitX=1;exitY=0.5;exitDx=0;exitDy=0;entryX=0;entryY=0.5;entryDx=0;entryDy=0;" parent="1" source="jXHp5anV71AdlyanNkg9-3" target="maN46sJLZ4QJRH9Op_n9-1" edge="1">
          <mxGeometry width="50" height="50" relative="1" as="geometry">
            <mxPoint x="400" y="445" as="sourcePoint" />
            <mxPoint x="460" y="440" as="targetPoint" />
          </mxGeometry>
        </mxCell>
        <mxCell id="s2veUAVOYKB9DMk2hkYw-8" value="" style="endArrow=none;html=1;rounded=0;exitX=0;exitY=0.5;exitDx=0;exitDy=0;entryX=1;entryY=0.5;entryDx=0;entryDy=0;" parent="1" target="maN46sJLZ4QJRH9Op_n9-1" edge="1" source="jXHp5anV71AdlyanNkg9-5">
          <mxGeometry width="50" height="50" relative="1" as="geometry">
            <mxPoint x="770" y="455" as="sourcePoint" />
            <mxPoint x="670" y="485" as="targetPoint" />
          </mxGeometry>
        </mxCell>
        <mxCell id="EvmcEuYZtlLhhWlE4iMw-1" value="" style="endArrow=none;html=1;rounded=0;entryX=0;entryY=1;entryDx=0;entryDy=0;exitX=0.5;exitY=0;exitDx=0;exitDy=0;" edge="1" parent="1" source="maN46sJLZ4QJRH9Op_n9-1" target="jXHp5anV71AdlyanNkg9-4">
          <mxGeometry width="50" height="50" relative="1" as="geometry">
            <mxPoint x="560" y="430" as="sourcePoint" />
            <mxPoint x="610" y="380" as="targetPoint" />
          </mxGeometry>
        </mxCell>
        <mxCell id="EvmcEuYZtlLhhWlE4iMw-2" value="" style="endArrow=none;html=1;rounded=0;entryX=0.5;entryY=1;entryDx=0;entryDy=0;exitX=0.5;exitY=0;exitDx=0;exitDy=0;" edge="1" parent="1" source="jXHp5anV71AdlyanNkg9-8" target="maN46sJLZ4QJRH9Op_n9-1">
          <mxGeometry width="50" height="50" relative="1" as="geometry">
            <mxPoint x="500" y="536" as="sourcePoint" />
            <mxPoint x="550" y="486" as="targetPoint" />
          </mxGeometry>
        </mxCell>
        <mxCell id="EvmcEuYZtlLhhWlE4iMw-3" value="" style="endArrow=none;html=1;rounded=0;exitX=0.5;exitY=1;exitDx=0;exitDy=0;" edge="1" parent="1" source="maN46sJLZ4QJRH9Op_n9-1" target="jXHp5anV71AdlyanNkg9-9">
          <mxGeometry width="50" height="50" relative="1" as="geometry">
            <mxPoint x="570" y="490" as="sourcePoint" />
            <mxPoint x="610" y="380" as="targetPoint" />
          </mxGeometry>
        </mxCell>
        <mxCell id="EvmcEuYZtlLhhWlE4iMw-4" value="&lt;font style=&quot;font-size: 48px;&quot;&gt;∞&lt;/font&gt;" style="text;whiteSpace=wrap;html=1;" vertex="1" parent="1">
          <mxGeometry x="450" y="360" width="40" height="40" as="geometry" />
        </mxCell>
        <mxCell id="EvmcEuYZtlLhhWlE4iMw-8" value="&lt;font style=&quot;font-size: 48px;&quot;&gt;∞&lt;/font&gt;" style="text;whiteSpace=wrap;html=1;" vertex="1" parent="1">
          <mxGeometry x="590" y="330" width="40" height="40" as="geometry" />
        </mxCell>
        <mxCell id="EvmcEuYZtlLhhWlE4iMw-9" value="&lt;font style=&quot;font-size: 48px;&quot;&gt;∞&lt;/font&gt;" style="text;whiteSpace=wrap;html=1;" vertex="1" parent="1">
          <mxGeometry x="590" y="454" width="40" height="40" as="geometry" />
        </mxCell>
        <mxCell id="EvmcEuYZtlLhhWlE4iMw-10" value="&lt;font style=&quot;font-size: 24px;&quot;&gt;1&lt;/font&gt;" style="text;whiteSpace=wrap;html=1;" vertex="1" parent="1">
          <mxGeometry x="200" y="242.5" width="40" height="40" as="geometry" />
        </mxCell>
        <mxCell id="EvmcEuYZtlLhhWlE4iMw-12" value="&lt;font style=&quot;font-size: 24px;&quot;&gt;1&lt;/font&gt;" style="text;whiteSpace=wrap;html=1;" vertex="1" parent="1">
          <mxGeometry x="825" y="237.5" width="40" height="40" as="geometry" />
        </mxCell>
        <mxCell id="EvmcEuYZtlLhhWlE4iMw-13" value="&lt;font style=&quot;font-size: 24px;&quot;&gt;1&lt;/font&gt;" style="text;whiteSpace=wrap;html=1;" vertex="1" parent="1">
          <mxGeometry x="780" y="580" width="40" height="40" as="geometry" />
        </mxCell>
      </root>
    </mxGraphModel>
  </diagram>
</mxfile>
